<?xml version="1.0" standalone="no"?>
<!DOCTYPE svg PUBLIC "-//W3C//DTD SVG 20010904//EN"
 "http://www.w3.org/TR/2001/REC-SVG-20010904/DTD/svg10.dtd">
<svg version="1.0" xmlns="http://www.w3.org/2000/svg"
 width="511.000000pt" height="511.000000pt" viewBox="0 0 511.000000 511.000000"
 preserveAspectRatio="xMidYMid meet">
<metadata>
Created by potrace 1.11, written by Peter Selinger 2001-2013
</metadata>
<g transform="translate(0.000000,511.000000) scale(0.100000,-0.100000)"
fill="#000000" stroke="none">
<path d="M980 4080 c-19 -19 -27 -88 -21 -185 6 -95 70 -302 136 -440 24 -49
42 -91 40 -93 -8 -9 -137 32 -229 72 -119 52 -147 60 -181 52 -35 -9 -33 -52
4 -102 38 -53 191 -198 276 -263 l70 -53 -65 7 c-60 7 -140 26 -297 71 -51 15
-64 16 -77 5 -27 -22 -18 -49 30 -96 51 -48 212 -163 278 -197 l41 -22 -50
-12 c-27 -7 -89 -13 -136 -13 -132 -2 -179 -28 -142 -81 26 -38 256 -140 316
-140 49 0 50 -5 45 -200 -5 -180 -5 -182 18 -209 25 -30 86 -51 147 -51 31 0
35 -4 45 -37 27 -94 42 -201 42 -304 0 -61 5 -130 12 -152 16 -53 67 -103 122
-119 l45 -13 -30 -68 c-53 -120 -26 -170 77 -143 51 14 140 55 186 87 14 11
28 19 31 19 2 0 7 -71 9 -157 3 -121 8 -165 21 -189 19 -36 38 -47 67 -36 16
6 166 167 235 252 28 34 115 63 150 50 54 -20 95 -13 131 25 28 30 39 35 77
35 54 0 81 20 122 89 43 72 51 63 11 -11 -42 -76 -52 -125 -36 -172 30 -92
151 -102 196 -15 26 52 15 112 -39 203 -28 48 -28 51 -10 63 10 8 56 52 104
98 l85 84 0 -54 c-1 -104 65 -127 192 -64 50 25 91 57 167 133 l100 101 100
-1 c83 -1 107 -4 140 -22 57 -32 145 -29 288 8 130 34 176 37 237 15 61 -22
63 -20 34 28 -33 53 -89 112 -132 139 -30 19 -32 22 -17 38 36 40 177 90 255
90 39 0 39 19 -1 64 -35 41 -103 68 -204 85 -38 6 -81 13 -95 15 -14 2 20 2
75 -1 88 -5 103 -3 123 14 35 28 17 63 -56 107 -32 19 -81 56 -108 81 -52 49
-50 65 7 65 47 0 183 40 246 72 35 17 90 56 123 87 49 46 60 62 60 89 0 43
-27 49 -154 30 -58 -9 -122 -12 -151 -9 l-50 7 56 27 c83 40 174 101 222 150
45 45 166 237 188 299 10 30 10 39 0 52 -21 26 -48 19 -114 -28 -83 -59 -134
-83 -209 -101 -34 -8 -63 -13 -64 -12 -2 1 24 36 57 77 94 117 130 202 204
472 24 89 24 123 -1 132 -26 10 -44 -6 -99 -94 -81 -129 -187 -220 -344 -300
-43 -21 -73 -30 -90 -27 -26 6 -113 30 -119 33 -8 5 39 81 63 104 42 39 68 96
55 120 -14 27 -46 25 -89 -5 -37 -25 -111 -59 -111 -50 0 2 13 30 29 62 45 90
71 177 71 240 0 70 -19 103 -59 103 -32 0 -60 -27 -91 -90 -41 -82 -104 -162
-155 -196 l-50 -34 -2 87 c-4 118 -8 133 -37 133 -17 0 -42 -21 -87 -72 -35
-40 -90 -99 -124 -130 -58 -56 -61 -58 -100 -50 -22 4 -87 7 -145 6 -153 -1
-282 -43 -394 -129 l-48 -36 -101 50 c-135 68 -206 85 -327 78 -149 -7 -278
-65 -408 -182 l-62 -57 -68 48 c-167 119 -280 258 -348 430 -36 91 -78 154
-103 154 -6 0 -20 -9 -31 -20z m2675 -117 c-22 -152 -207 -463 -276 -463 -16
0 -36 14 -60 42 l-36 42 26 57 c14 32 31 58 37 59 6 0 38 14 72 31 76 37 137
104 189 204 21 41 42 75 47 75 4 0 5 -21 1 -47z m-2554 -138 c65 -136 174
-258 328 -366 33 -24 61 -47 61 -51 0 -5 -7 -20 -16 -34 -17 -25 -17 -25 -128
-18 -78 5 -116 11 -129 22 -24 21 -109 200 -141 297 -35 107 -56 209 -55 270
l0 50 16 -35 c8 -19 37 -80 64 -135z m2189 -17 c-8 -69 -43 -158 -62 -158 -5
0 -31 12 -57 26 l-47 27 85 88 c47 48 87 86 88 85 1 -1 -2 -32 -7 -68z m942
-219 c-21 -63 -54 -139 -73 -169 -71 -111 -205 -236 -375 -351 -40 -27 -76
-49 -79 -49 -11 0 9 87 32 140 13 30 42 76 64 102 42 50 69 104 69 138 0 15
14 27 57 45 88 40 212 127 278 197 33 35 61 63 62 63 2 -1 -14 -53 -35 -116z
m-579 -14 l-27 -55 -54 0 -54 0 21 33 c17 27 99 74 133 77 4 0 -4 -25 -19 -55z
m-1673 -10 c0 -3 -17 -15 -38 -29 -105 -66 -225 -211 -271 -327 -22 -56 -23
-57 -82 -71 -70 -17 -70 -21 -12 102 53 111 166 220 293 283 93 45 110 52 110
42z m1623 -134 c-53 -25 -62 -43 -76 -152 -6 -49 -14 -89 -17 -89 -3 0 -22 17
-42 38 -27 27 -41 54 -53 102 -9 35 -21 72 -26 82 -8 14 -5 19 13 22 13 3 32
7 43 9 11 3 61 5 110 6 l90 1 -42 -19z m175 -7 c26 -17 28 -34 7 -74 -21 -41
-32 -37 -39 14 -7 42 -24 67 -56 79 -8 4 3 4 25 1 22 -4 50 -13 63 -20z
m-2778 -97 c79 -28 98 -30 258 -35 154 -4 172 -7 166 -21 -3 -9 -14 -41 -24
-71 -16 -49 -21 -55 -51 -62 -19 -4 -63 -18 -98 -32 l-63 -25 -103 70 c-98 66
-285 231 -285 250 0 5 26 -3 58 -17 31 -15 95 -40 142 -57z m1512 37 c94 -60
110 -76 33 -34 -55 31 -124 80 -111 80 3 0 38 -21 78 -46z m1168 -19 c0 -34
-1 -35 -27 -29 -46 11 -56 24 -37 45 10 11 28 19 41 19 20 0 23 -5 23 -35z
m-10 -95 l42 0 -22 -36 c-13 -19 -30 -60 -39 -90 l-16 -54 -33 31 c-22 21 -31
37 -28 52 3 12 8 43 11 70 6 42 8 46 25 37 10 -5 37 -10 60 -10z m684 -37
c-81 -140 -107 -169 -221 -240 -81 -50 -282 -136 -324 -137 -15 -1 -25 -4 -22
-8 2 -5 1 -8 -4 -8 -4 0 -29 -7 -55 -14 l-46 -14 29 64 c16 35 29 72 29 83 0
12 23 34 67 62 37 24 97 67 133 95 62 47 71 51 154 63 92 13 186 43 246 80 19
11 37 21 38 21 2 0 -9 -21 -24 -47z m-999 -250 c-4 -48 -11 -83 -17 -83 -8 0
-9 36 -5 113 4 61 8 132 8 157 1 36 3 31 11 -30 5 -41 6 -112 3 -157z m215 80
c102 -89 109 -97 95 -113 -19 -21 -127 -50 -186 -50 l-42 0 7 46 c3 26 6 84 6
130 0 46 2 84 5 84 3 0 55 -43 115 -97z m-1500 67 c241 -21 528 -87 914 -211
120 -38 253 -74 295 -80 81 -12 255 -6 309 10 17 5 32 8 32 5 0 -2 -18 -59
-41 -126 -30 -90 -42 -143 -45 -207 -3 -47 -10 -98 -16 -113 -20 -53 -120 -81
-288 -80 -117 1 -134 4 -275 45 -832 245 -1473 249 -1808 11 -26 -19 -49 -34
-52 -34 -3 0 -5 37 -5 83 0 111 -17 299 -31 334 -9 25 -7 31 23 57 151 130
414 253 623 291 138 25 213 28 365 15z m-700 -40 c0 -5 -23 -22 -52 -36 -69
-35 -232 -136 -236 -146 -2 -4 -9 -8 -16 -8 -30 0 -274 143 -291 171 -6 9 -3
10 11 5 53 -22 219 -48 304 -48 87 -1 103 2 185 35 105 42 95 39 95 27z m2619
-296 c82 -16 176 -15 266 2 l30 5 -35 -30 c-19 -17 -60 -44 -90 -60 -94 -50
-158 -62 -356 -68 l-182 -5 11 45 10 46 71 21 c39 11 94 29 121 39 64 24 54
24 154 5z m-2990 -64 c6 -28 11 -53 11 -55 0 -15 -117 19 -200 59 l-65 31 95
5 c52 4 107 7 122 8 24 2 27 -2 37 -48z m2811 -168 c0 -17 77 -97 135 -140
l60 -45 -80 7 c-44 4 -108 9 -141 13 l-62 6 -6 54 c-3 30 -13 68 -21 84 l-16
29 66 0 c36 0 65 -4 65 -8z m-165 -74 c3 -15 8 -41 11 -58 5 -29 4 -30 -30
-30 l-36 0 0 54 c0 73 6 88 31 73 10 -6 21 -24 24 -39z m-2022 -15 c2 -5 7
-26 10 -48 l6 -40 -19 40 c-22 47 -23 55 -11 55 6 0 12 -3 14 -7z m-174 -69
c15 -41 81 -125 146 -185 25 -23 45 -48 45 -56 0 -11 -4 -13 -12 -5 -35 28
-131 44 -308 52 -184 8 -230 15 -230 31 0 11 70 76 117 108 48 32 182 91 208
91 15 0 25 -10 34 -36z m2265 -86 c6 -10 1 -34 -13 -72 -11 -31 -21 -74 -21
-95 0 -36 -18 -63 -57 -85 -18 -10 -65 18 -102 59 -36 41 -36 43 -15 73 10 15
26 22 47 22 l32 1 -25 13 c-21 12 -24 20 -21 53 1 21 5 41 7 45 9 13 158 1
168 -14z m114 5 c-10 -2 -26 -2 -35 0 -10 3 -2 5 17 5 19 0 27 -2 18 -5z
m-501 -74 c-14 -8 -22 -8 -30 0 -8 8 -3 11 19 11 25 -1 27 -2 11 -11z m73 -53
c0 -2 -7 -7 -16 -10 -8 -3 -12 -2 -9 4 6 10 25 14 25 6z m-228 -136 c-27 -53
-41 -70 -56 -70 -33 0 -53 17 -41 34 6 8 28 41 50 74 37 57 40 59 61 45 l22
-14 -36 -69z m-1657 68 c108 -23 137 -55 106 -116 -25 -49 -37 -58 -89 -66
-48 -7 -110 -36 -159 -73 l-31 -24 -7 58 c-6 50 -17 108 -43 222 l-5 24 89 -7
c49 -4 112 -12 139 -18z m325 -84 c0 -6 -23 -39 -50 -73 -29 -36 -55 -80 -61
-105 -6 -23 -19 -47 -29 -54 -18 -11 -21 -6 -38 51 l-18 62 28 44 c19 31 28
58 28 87 0 74 4 76 75 35 36 -20 65 -41 65 -47z m1680 -42 c0 -17 -4 -41 -9
-54 -9 -23 -11 -24 -146 -23 -129 0 -138 1 -152 21 -12 19 -10 28 20 85 40 78
65 85 83 24 l11 -40 12 38 c10 31 22 42 54 56 l40 17 43 -47 c32 -34 44 -54
44 -77z m-1291 48 c133 -52 236 -131 305 -235 42 -64 31 -59 -46 19 -75 75
-158 134 -288 205 -89 48 -79 52 29 11z m-251 -51 c34 -11 62 -23 62 -26 0
-20 -29 -47 -66 -63 -24 -11 -44 -23 -44 -28 0 -5 15 -13 33 -18 23 -7 33 -16
35 -33 l4 -24 -89 6 c-96 6 -123 13 -123 31 0 17 108 175 121 176 3 0 33 -9
67 -21z m140 -79 c-7 -10 -14 -18 -15 -16 -6 6 9 36 18 36 5 0 4 -9 -3 -20z
m-528 -37 c0 -5 3 -17 6 -29 5 -20 1 -22 -59 -26 -74 -6 -112 -22 -140 -60
-23 -30 -18 -67 13 -98 25 -25 79 -26 122 -4 l31 16 -38 -46 c-43 -52 -70 -58
-122 -26 -38 23 -58 53 -68 98 -6 29 -3 38 22 64 41 44 110 89 157 104 47 15
76 17 76 7z m639 -7 c20 -24 10 -70 -17 -74 -26 -4 -52 13 -52 34 0 15 35 54
49 54 5 0 14 -6 20 -14z m-135 -8 c-3 -4 -9 -8 -15 -8 -5 0 -9 4 -9 8 0 5 7 9
15 9 8 0 12 -4 9 -9z m-594 -127 c0 -17 -18 -31 -41 -31 -16 0 -10 29 9 39 25
15 32 13 32 -8z m98 11 c16 -11 6 -39 -19 -53 -17 -9 -19 -6 -19 26 0 35 12
43 38 27z m702 4 c0 -2 -8 -10 -17 -17 -16 -13 -17 -12 -4 4 13 16 21 21 21
13z m-283 -23 c3 -7 -15 -24 -39 -39 -24 -15 -56 -38 -73 -52 -34 -29 -30 -28
79 12 108 38 108 28 2 -96 -68 -80 -99 -100 -121 -77 -17 18 -65 140 -65 166
0 22 28 50 80 82 39 24 130 26 137 4z m134 0 c13 -16 12 -17 -3 -4 -10 7 -18
15 -18 17 0 8 8 3 21 -13z m149 -13 c0 -5 -5 -10 -11 -10 -5 0 -7 5 -4 10 3 6
8 10 11 10 2 0 4 -4 4 -10z m153 -29 c73 -81 73 -80 26 -155 -24 -36 -51 -68
-61 -72 -33 -10 -68 4 -68 27 0 12 -7 48 -15 81 -13 48 -14 63 -3 75 11 13 15
11 35 -13 l23 -29 0 47 c0 49 7 78 20 78 4 0 24 -18 43 -39z m-294 -108 c5
-21 11 -47 13 -58 3 -14 10 -3 22 33 14 42 22 52 40 52 26 0 44 -46 53 -136 9
-83 -11 -97 -93 -63 -28 11 -38 10 -82 -9 -28 -12 -57 -19 -65 -16 -20 7 -29
61 -18 101 11 38 88 133 107 133 7 0 18 -17 23 -37z"/>
<path d="M1932 2940 c-38 -16 -62 -83 -62 -175 0 -55 5 -87 15 -101 20 -29 68
-37 111 -19 46 19 64 64 67 170 2 76 0 86 -22 109 -26 27 -65 33 -109 16z m72
-56 c17 -43 -1 -180 -26 -195 -19 -12 -24 -11 -43 7 -14 14 -15 29 -9 93 3 42
11 84 16 94 11 21 54 22 62 1z"/>
<path d="M2230 2916 c0 -19 6 -25 28 -28 15 -2 26 -7 26 -13 -1 -5 -5 -63 -9
-127 l-6 -118 29 0 29 0 7 133 c4 72 10 142 13 155 5 21 2 22 -56 22 -58 0
-61 -1 -61 -24z"/>
<path d="M1625 2915 c-5 -2 -22 -6 -37 -9 -22 -5 -28 -12 -28 -31 0 -22 3 -25
26 -19 l27 7 -8 -132 c-7 -136 -4 -146 33 -122 14 8 31 152 32 264 0 47 -8 54
-45 42z"/>
<path d="M2577 2882 c-27 -30 -37 -71 -37 -152 0 -69 3 -82 25 -108 28 -33 73
-46 110 -32 38 15 55 66 55 165 0 82 -1 88 -29 116 -35 35 -97 41 -124 11z
m93 -47 c15 -18 8 -151 -10 -184 -14 -28 -36 -27 -56 4 -12 19 -14 38 -9 92 4
37 9 76 11 86 7 21 47 23 64 2z"/>
<path d="M1284 2844 c-54 -26 -76 -82 -78 -190 -1 -105 5 -118 59 -118 80 0
124 68 128 198 2 81 0 89 -22 107 -28 23 -46 24 -87 3z m44 -46 c15 -15 15
-122 -1 -168 -9 -26 -18 -36 -38 -38 -33 -4 -38 11 -29 106 9 89 37 131 68
100z"/>
<path d="M2893 2824 c-8 -22 5 -44 26 -44 11 0 22 -4 25 -8 3 -5 1 -64 -5
-131 -6 -68 -9 -124 -7 -126 2 -2 15 -6 29 -10 l27 -7 8 144 c5 79 9 150 9
158 0 21 -104 44 -112 24z"/>
<path d="M3227 2708 c-36 -27 -51 -192 -22 -248 31 -60 114 -92 145 -55 20 24
32 153 20 206 -19 77 -98 131 -143 97z m81 -60 c15 -15 16 -161 2 -189 -15
-26 -36 -24 -56 6 -13 21 -15 39 -9 103 4 42 9 80 12 85 7 11 38 8 51 -5z"/>
</g>
</svg>
